<svg xmlns="http://www.w3.org/2000/svg" viewBox="0 0 64 64">
  <defs>
    <clipPath id="b"><circle cx="30" cy="32" r="24"/></clipPath>
  </defs>
  <circle cx="30" cy="32" r="24" fill="#3d7f95"/>
  <g clip-path="url(#b)" fill="none" stroke="#fffaf0" stroke-width="3.5" stroke-linecap="round" opacity=".85">
    <path d="M2 22c14 9 36 9 56 0"/>
    <path d="M0 34c14 9 38 9 62 0"/>
    <path d="M4 46c14 8 34 8 52 0"/>
    <path d="M14 6c10 12 12 34 2 54"/>
    <path d="M36 6c12 14 10 34-2 54"/>
  </g>
  <circle cx="30" cy="32" r="24" fill="none" stroke="#2c6176" stroke-width="2"/>
  <path d="M48 46c6 2 9 6 10 10-5-3-9-1-13-2" fill="none" stroke="#d98a52" stroke-width="3.5" stroke-linecap="round"/>
  <path d="M20 16a16 16 0 0 1 12-6" fill="none" stroke="#fff" stroke-width="3" stroke-linecap="round" opacity=".45"/>
</svg>
